<?xml version="1.0" standalone="no"?>
<!DOCTYPE svg PUBLIC "-//W3C//DTD SVG 20010904//EN"
 "http://www.w3.org/TR/2001/REC-SVG-20010904/DTD/svg10.dtd">
<svg version="1.0" xmlns="http://www.w3.org/2000/svg"
 width="1414.000000pt" height="516.000000pt" viewBox="0 0 1414.000000 516.000000"
 preserveAspectRatio="xMidYMid meet">

<g transform="translate(0.000000,516.000000) scale(0.100000,-0.100000)"
fill="#000000" stroke="none">
<path d="M4175 4570 c-107 -17 -281 -80 -298 -108 -10 -15 48 -122 95 -176
l43 -49 70 31 c179 78 215 86 395 87 187 0 236 -11 363 -86 180 -107 337 -327
420 -589 19 -62 25 -70 47 -70 52 0 55 11 25 101 -35 107 -121 281 -188 378
-64 93 -242 274 -320 325 -93 60 -206 113 -292 136 -92 24 -268 34 -360 20z"/>
<path d="M7685 3553 c-16 -2 -58 -13 -92 -25 l-63 -22 0 -1193 0 -1193 698 0
699 0 20 22 c30 34 62 100 69 149 l7 42 -104 -7 c-319 -20 -787 -46 -941 -52
l-178 -7 0 1146 0 1147 -42 -1 c-24 -1 -56 -4 -73 -6z"/>
<path d="M2785 3478 c19 -70 40 -110 71 -138 l35 -30 1159 0 1160 0 0 -257 0
-258 -287 -210 c-158 -115 -292 -211 -299 -213 -6 -2 -17 11 -24 28 -19 46
-86 147 -137 207 -97 114 -245 211 -378 248 -88 24 -302 31 -391 12 -267 -57
-460 -238 -536 -502 -19 -69 -23 -102 -22 -235 0 -186 18 -262 94 -415 122
-245 367 -486 664 -650 l69 -38 19 22 c10 13 18 26 18 30 -1 3 -51 39 -113 79
-263 170 -405 331 -476 540 -24 72 -25 89 -25 262 0 174 1 190 27 265 49 147
135 266 244 337 311 204 702 113 862 -199 11 -23 21 -46 21 -51 0 -4 -101 -81
-225 -171 l-225 -163 23 -40 c28 -50 122 -138 148 -138 11 0 226 151 479 335
253 184 462 335 465 335 3 0 5 -281 5 -624 l0 -624 39 -34 c42 -36 127 -68
179 -68 l32 0 0 1095 0 1095 251 0 252 0 -6 36 c-9 56 -54 124 -93 140 -28 12
-269 14 -1559 14 l-1526 0 6 -22z"/>
<path d="M10117 2918 c-307 -35 -589 -242 -722 -531 -69 -148 -80 -210 -79
-422 1 -222 14 -287 89 -439 135 -270 375 -425 685 -443 357 -20 688 173 845
492 68 139 96 260 102 440 11 316 -72 546 -257 718 -116 107 -254 167 -435
187 -101 11 -118 11 -228 -2z m138 -148 c96 -15 198 -72 280 -154 38 -40 85
-97 104 -129 75 -128 121 -330 121 -536 0 -416 -139 -645 -426 -706 -259 -55
-506 70 -633 321 -86 170 -106 266 -106 504 0 215 10 263 80 407 112 228 323
335 580 293z"/>
<path d="M6099 2239 c-27 -27 -56 -93 -65 -147 l-7 -43 436 3 436 3 28 27 c31
30 63 106 63 151 l0 27 -435 0 c-429 0 -435 0 -456 -21z"/>
</g>
</svg>
